<svg width="18" height="22" viewBox="0 0 18 22" fill="none" xmlns="http://www.w3.org/2000/svg">
<path d="M17.5589 18.7937L16.3137 6.25265C16.2785 5.90711 15.9625 5.64328 15.5835 5.64328H13.3885V4.30399C13.3885 3.2272 12.9334 2.21604 12.1067 1.45935C11.2799 0.702651 10.1751 0.286133 8.99862 0.286133C6.57832 0.286133 4.60871 2.08881 4.60871 4.30399V5.64328H2.41376C2.03477 5.64328 1.71869 5.90711 1.68504 6.25265L0.439767 18.7937C0.365138 19.541 0.640239 20.2884 1.19337 20.8428C1.7465 21.3973 2.53375 21.7147 3.35466 21.7147H14.644C15.4649 21.7147 16.2522 21.3973 16.8053 20.8428C17.3585 20.2884 17.6321 19.541 17.5589 18.7937ZM6.07202 4.30399C6.07202 2.82676 7.3846 1.62542 8.99862 1.62542C9.78441 1.62542 10.5205 1.90265 11.0721 2.40622C11.6238 2.90979 11.9252 3.58479 11.9252 4.30399V5.64328H6.07202V4.30399ZM15.724 19.9402C15.443 20.2201 15.0596 20.3754 14.6426 20.3754H3.35466C2.93909 20.3754 2.55424 20.2201 2.27475 19.9388C1.99379 19.6576 1.86063 19.2946 1.89868 18.9143L3.08249 6.98256H4.60871V8.99149C4.60871 9.36113 4.93649 9.66113 5.34036 9.66113C5.74424 9.66113 6.07202 9.36113 6.07202 8.99149V6.98256H11.9252V8.99149C11.9252 9.36113 12.253 9.66113 12.6569 9.66113C13.0607 9.66113 13.3885 9.36113 13.3885 8.99149V6.98256H14.9147L16.1 18.9156C16.1381 19.2946 16.0049 19.6589 15.724 19.9402Z" fill="#2C2419"/>
</svg>
