<svg width="21" height="19" viewBox="0 0 21 19" fill="none" xmlns="http://www.w3.org/2000/svg">
<path d="M15.3085 0.358398C13.2175 0.358398 11.4 1.57872 10.5002 3.36017C9.60041 1.57876 7.78285 0.358398 5.6919 0.358398C2.70954 0.358398 0.283203 2.84135 0.283203 5.8933C0.283203 7.38094 0.852032 8.7771 1.88294 9.82264L10.5002 18.6414L19.1155 9.82457C20.1484 8.7771 20.7172 7.38094 20.7172 5.8933C20.7172 2.84135 18.2908 0.358398 15.3085 0.358398ZM18.2683 8.95373L10.5002 16.9035L2.73015 8.95176C1.92657 8.1368 1.48402 7.05062 1.48402 5.8933C1.48402 3.51894 3.37167 1.58724 5.6919 1.58724C8.01212 1.58724 9.89977 3.51894 9.89977 5.8933H11.1006C11.1006 3.51894 12.9882 1.58724 15.3085 1.58724C17.6287 1.58724 19.5163 3.51894 19.5163 5.8933C19.5163 7.05066 19.0738 8.13684 18.2683 8.95373Z" fill="#2C2419"/>
</svg>
