<svg width="18" height="16" viewBox="0 0 18 16"  xmlns="http://www.w3.org/2000/svg">
<path d="M12.8678 0.695312C11.1861 0.695312 9.72427 1.67039 9.0006 3.09382C8.27692 1.67042 6.81507 0.695312 5.13335 0.695312C2.73468 0.695312 0.783203 2.67927 0.783203 5.11787C0.783203 6.30654 1.24071 7.42212 2.06985 8.25753L9.0006 15.304L15.9298 8.25907C16.7605 7.42212 17.218 6.30654 17.218 5.11787C17.218 2.67927 15.2665 0.695312 12.8678 0.695312ZM15.2484 7.56325L9.0006 13.9154L2.75126 7.56168C2.10494 6.91049 1.74901 6.04261 1.74901 5.11787C1.74901 3.22068 3.26722 1.67719 5.13335 1.67719C6.99948 1.67719 8.51769 3.22068 8.51769 5.11787H9.4835C9.4835 3.22068 11.0017 1.67719 12.8678 1.67719C14.734 1.67719 16.2522 3.22068 16.2522 5.11787C16.2522 6.04264 15.8963 6.91052 15.2484 7.56325Z" fill="#1D170F"/>
</svg>
