<svg width="129" height="60" viewBox="0 0 129 60" fill="none" xmlns="http://www.w3.org/2000/svg">
<path d="M2.94 38V9.02C5.544 8.768 9.212 8.642 13.944 8.642C18.004 8.642 20.776 9.3 22.26 10.616C23.772 11.932 24.528 14.424 24.528 18.092C24.528 21.76 23.814 24.266 22.386 25.61C20.986 26.926 18.452 27.584 14.784 27.584C12.936 27.584 11.116 27.472 9.324 27.248V38H2.94ZM9.324 22.67H13.818C15.47 22.642 16.59 22.32 17.178 21.704C17.794 21.088 18.102 19.884 18.102 18.092C18.102 16.3 17.794 15.096 17.178 14.48C16.59 13.864 15.47 13.556 13.818 13.556L9.324 13.598V22.67ZM38.1228 38H31.7388V9.02H38.1228V38ZM53.3025 9.02V30.65C53.3025 31.406 53.4705 31.952 53.8065 32.288C54.1705 32.624 54.7585 32.792 55.5705 32.792H65.5245L65.8185 37.664C62.9905 37.972 58.9025 38.126 53.5545 38.126C51.3145 38.126 49.6485 37.566 48.5565 36.446C47.4645 35.326 46.9185 33.828 46.9185 31.952V9.02H53.3025ZM73.6679 11.708C75.4879 9.552 78.7219 8.474 83.3699 8.474C88.0179 8.474 91.2519 9.552 93.0719 11.708C94.8919 13.836 95.8019 17.77 95.8019 23.51C95.8019 29.25 94.8919 33.198 93.0719 35.354C91.2519 37.482 88.0179 38.546 83.3699 38.546C78.7219 38.546 75.4879 37.482 73.6679 35.354C71.8759 33.198 70.9799 29.25 70.9799 23.51C70.9799 17.77 71.8759 13.836 73.6679 11.708ZM87.8219 15.698C87.0379 14.326 85.5539 13.64 83.3699 13.64C81.1859 13.64 79.6879 14.326 78.8759 15.698C78.0919 17.07 77.6999 19.674 77.6999 23.51C77.6999 27.346 78.0919 29.95 78.8759 31.322C79.6879 32.694 81.1859 33.38 83.3699 33.38C85.5539 33.38 87.0379 32.694 87.8219 31.322C88.6339 29.95 89.0399 27.346 89.0399 23.51C89.0399 19.674 88.6339 17.07 87.8219 15.698ZM124.916 14.228H116.264V38H109.838V14.228H101.186V9.02H124.916V14.228Z" fill="#FFA401"/>
<path d="M2.902 51.446L2.814 50.753C3.81133 50.5917 4.67667 50.511 5.41 50.511C6.03333 50.511 6.49167 50.643 6.785 50.907C7.08567 51.1637 7.236 51.6037 7.236 52.227V56H6.499L6.389 55.12C6.13233 55.384 5.80967 55.615 5.421 55.813C5.03967 56.0037 4.62533 56.099 4.178 56.099C3.68667 56.099 3.298 55.9707 3.012 55.714C2.726 55.45 2.583 55.0797 2.583 54.603V54.02C2.583 53.602 2.71133 53.2793 2.968 53.052C3.232 52.8173 3.59867 52.7 4.068 52.7H6.301V52.227C6.29367 51.8897 6.213 51.6513 6.059 51.512C5.905 51.3727 5.62267 51.303 5.212 51.303C4.69133 51.303 3.92133 51.3507 2.902 51.446ZM3.529 54.152V54.493C3.529 54.7717 3.595 54.977 3.727 55.109C3.86633 55.2337 4.079 55.296 4.365 55.296C4.651 55.3033 4.97 55.2373 5.322 55.098C5.674 54.9587 6.00033 54.757 6.301 54.493V53.415H4.233C3.76367 53.437 3.529 53.6827 3.529 54.152ZM12.2163 53.228V53.261C12.7003 53.2977 13.045 53.4333 13.2503 53.668C13.4557 53.8953 13.5583 54.2327 13.5583 54.68C13.5583 55.2153 13.397 55.582 13.0743 55.78C12.759 55.978 12.2053 56.077 11.4133 56.077C10.372 56.077 9.547 56.055 8.93834 56.011V50.654C9.47367 50.61 10.1997 50.588 11.1163 50.588C11.967 50.588 12.5537 50.687 12.8763 50.885C13.2063 51.083 13.3713 51.4607 13.3713 52.018C13.3713 52.3993 13.2797 52.689 13.0963 52.887C12.913 53.085 12.6197 53.1987 12.2163 53.228ZM9.81834 52.909H11.2263C11.6957 52.909 12.022 52.854 12.2053 52.744C12.3887 52.6267 12.4803 52.4103 12.4803 52.095C12.4803 51.7943 12.3777 51.5927 12.1723 51.49C11.9743 51.38 11.6113 51.325 11.0833 51.325C10.5773 51.3177 10.1557 51.3177 9.81834 51.325V52.909ZM9.81834 53.58V55.329C9.92834 55.329 10.1483 55.3327 10.4783 55.34C10.8083 55.34 11.076 55.34 11.2813 55.34C11.7873 55.34 12.1357 55.2813 12.3263 55.164C12.5243 55.0467 12.6233 54.8193 12.6233 54.482C12.6233 54.1447 12.5207 53.91 12.3153 53.778C12.11 53.646 11.747 53.58 11.2263 53.58H9.81834ZM19.2212 51.413H17.2852V56H16.3502V51.413H14.4032V50.643H19.2212V51.413ZM22.5698 50.511C23.4865 50.511 24.1355 50.7237 24.5168 51.149C24.8982 51.5743 25.0888 52.3003 25.0888 53.327C25.0888 54.3537 24.8982 55.0797 24.5168 55.505C24.1355 55.9303 23.4865 56.143 22.5698 56.143C21.6458 56.143 20.9932 55.9303 20.6118 55.505C20.2305 55.0797 20.0398 54.3537 20.0398 53.327C20.0398 52.3003 20.2305 51.5743 20.6118 51.149C20.9932 50.7237 21.6458 50.511 22.5698 50.511ZM22.5698 51.303C21.9758 51.303 21.5688 51.446 21.3488 51.732C21.1288 52.018 21.0188 52.5497 21.0188 53.327C21.0188 54.1043 21.1288 54.636 21.3488 54.922C21.5688 55.208 21.9758 55.351 22.5698 55.351C23.1565 55.351 23.5598 55.208 23.7798 54.922C23.9998 54.636 24.1098 54.1043 24.1098 53.327C24.1098 52.5497 23.9998 52.018 23.7798 51.732C23.5598 51.446 23.1565 51.303 22.5698 51.303ZM30.669 50.643V56H29.745V53.745C29.0117 54.009 28.315 54.141 27.655 54.141C26.7603 54.141 26.313 53.7487 26.313 52.964V50.643H27.237V52.656C27.237 52.92 27.292 53.107 27.402 53.217C27.512 53.3197 27.699 53.371 27.963 53.371C28.557 53.371 29.151 53.2463 29.745 52.997V50.643H30.669ZM35.6655 53.778H33.1685C33.2198 54.394 33.3702 54.8083 33.6195 55.021C33.8688 55.2337 34.2795 55.34 34.8515 55.34C35.4675 55.34 36.0908 55.296 36.7215 55.208L36.8095 55.835C36.3402 56.033 35.6472 56.132 34.7305 56.132C33.8065 56.132 33.1502 55.9193 32.7615 55.494C32.3728 55.0613 32.1785 54.3317 32.1785 53.305C32.1785 52.271 32.3692 51.5487 32.7505 51.138C33.1318 50.72 33.7588 50.511 34.6315 50.511C35.4308 50.511 36.0138 50.6577 36.3805 50.951C36.7472 51.237 36.9342 51.6733 36.9415 52.26C36.9415 53.272 36.5162 53.778 35.6655 53.778ZM33.1575 53.052H35.4235C35.8195 53.052 36.0102 52.788 35.9955 52.26C35.9955 51.9153 35.8965 51.6697 35.6985 51.523C35.5005 51.3763 35.1595 51.303 34.6755 51.303C34.1108 51.303 33.7185 51.4277 33.4985 51.677C33.2785 51.9263 33.1648 52.3847 33.1575 53.052ZM40.5389 53.58H40.3189L38.7899 56H37.7669L39.5599 53.239L37.9099 50.643H38.9219L40.2969 52.854H40.5499L41.9359 50.643H42.9479L41.2869 53.239L43.0799 56H42.0569L40.5389 53.58ZM48.6487 50.643V56H47.7137V51.38H46.5477C46.3203 51.38 46.1553 51.4313 46.0527 51.534C45.9573 51.6293 45.8913 51.8017 45.8547 52.051C45.6787 53.4737 45.5063 54.4123 45.3377 54.867C45.0663 55.6517 44.5053 56.0477 43.6547 56.055L43.5557 55.34C43.8417 55.274 44.0507 55.186 44.1827 55.076C44.3147 54.9587 44.421 54.7973 44.5017 54.592C44.6777 54.1447 44.8353 53.2463 44.9747 51.897C45.026 51.4717 45.1617 51.1563 45.3817 50.951C45.6017 50.7457 45.9317 50.643 46.3717 50.643H48.6487ZM51.3054 52.722H52.5704C53.3624 52.722 53.9088 52.843 54.2094 53.085C54.5101 53.327 54.6604 53.7633 54.6604 54.394C54.6604 55.032 54.5138 55.472 54.2204 55.714C53.9271 55.9487 53.4248 56.066 52.7134 56.066C51.7528 56.066 50.9901 56.044 50.4254 56H50.3924V50.643H51.3054V52.722ZM56.5854 50.643V56H55.6394V50.643H56.5854ZM51.3054 55.318L52.5704 55.329C53.0031 55.329 53.3001 55.2667 53.4614 55.142C53.6301 55.01 53.7144 54.7497 53.7144 54.361C53.7144 54.0017 53.6338 53.756 53.4724 53.624C53.3111 53.4847 53.0104 53.415 52.5704 53.415H51.3054V55.318ZM65.4774 56H64.6304V52.447C64.6304 52.359 64.6341 52.2307 64.6414 52.062C64.6561 51.886 64.6634 51.776 64.6634 51.732H64.6414C64.5607 51.93 64.4361 52.139 64.2674 52.359L61.5394 56H60.7694V50.643H61.6164V54.196C61.6164 54.4087 61.6054 54.647 61.5834 54.911H61.6054C61.7227 54.669 61.8511 54.4637 61.9904 54.295L64.7184 50.643H65.4774V56ZM69.7077 51.446L69.6197 50.753C70.617 50.5917 71.4823 50.511 72.2157 50.511C72.839 50.511 73.2973 50.643 73.5907 50.907C73.8913 51.1637 74.0417 51.6037 74.0417 52.227V56H73.3047L73.1947 55.12C72.938 55.384 72.6153 55.615 72.2267 55.813C71.8453 56.0037 71.431 56.099 70.9837 56.099C70.4923 56.099 70.1037 55.9707 69.8177 55.714C69.5317 55.45 69.3887 55.0797 69.3887 54.603V54.02C69.3887 53.602 69.517 53.2793 69.7737 53.052C70.0377 52.8173 70.4043 52.7 70.8737 52.7H73.1067V52.227C73.0993 51.8897 73.0187 51.6513 72.8647 51.512C72.7107 51.3727 72.4283 51.303 72.0177 51.303C71.497 51.303 70.727 51.3507 69.7077 51.446ZM70.3347 54.152V54.493C70.3347 54.7717 70.4007 54.977 70.5327 55.109C70.672 55.2337 70.8847 55.296 71.1707 55.296C71.4567 55.3033 71.7757 55.2373 72.1277 55.098C72.4797 54.9587 72.806 54.757 73.1067 54.493V53.415H71.0387C70.5693 53.437 70.3347 53.6827 70.3347 54.152ZM78.197 53.195V53.228C78.395 53.2427 78.571 53.2757 78.725 53.327C78.879 53.3783 79.022 53.4663 79.154 53.591C79.286 53.7157 79.396 53.833 79.484 53.943C79.572 54.053 79.6747 54.2363 79.792 54.493C79.9093 54.7423 80.001 54.9587 80.067 55.142C80.1403 55.3253 80.2503 55.6113 80.397 56H79.418C79.2933 55.6773 79.2053 55.4537 79.154 55.329C79.1027 55.197 79.0257 55.0173 78.923 54.79C78.8277 54.5627 78.7507 54.4087 78.692 54.328C78.6333 54.2473 78.5527 54.1447 78.45 54.02C78.3547 53.888 78.2593 53.8037 78.164 53.767C78.076 53.723 77.9697 53.6827 77.845 53.646C77.7203 53.602 77.581 53.58 77.427 53.58H77.372H76.635C76.6643 53.8147 76.679 53.987 76.679 54.097V56H75.744V50.643H76.679V52.238C76.679 52.4287 76.6607 52.634 76.624 52.854H77.372C77.6287 52.854 77.8487 52.81 78.032 52.722C78.2153 52.634 78.3803 52.48 78.527 52.26C78.681 52.0327 78.8057 51.8127 78.901 51.6C78.9963 51.3873 79.121 51.0683 79.275 50.643H80.243C80.155 50.885 80.089 51.0573 80.045 51.16C80.0083 51.2553 79.9497 51.3983 79.869 51.589C79.7957 51.7797 79.737 51.9153 79.693 51.996C79.649 52.0693 79.5903 52.1757 79.517 52.315C79.4437 52.4543 79.3777 52.5533 79.319 52.612C79.2603 52.6707 79.187 52.744 79.099 52.832C79.011 52.9127 78.923 52.975 78.835 53.019C78.7543 53.0557 78.659 53.0923 78.549 53.129C78.439 53.1583 78.3217 53.1803 78.197 53.195ZM85.6245 55.23L85.7125 55.857C85.1918 56.0403 84.5832 56.132 83.8865 56.132C82.9552 56.132 82.2988 55.923 81.9175 55.505C81.5362 55.0797 81.3455 54.35 81.3455 53.316C81.3455 52.2893 81.5362 51.567 81.9175 51.149C82.3062 50.7237 82.9625 50.511 83.8865 50.511C84.5905 50.511 85.1662 50.5953 85.6135 50.764L85.4925 51.369C85.0085 51.325 84.5245 51.303 84.0405 51.303C83.4025 51.303 82.9552 51.446 82.6985 51.732C82.4492 52.018 82.3245 52.546 82.3245 53.316C82.3245 54.0933 82.4492 54.625 82.6985 54.911C82.9478 55.197 83.3952 55.34 84.0405 55.34C84.6345 55.34 85.1625 55.3033 85.6245 55.23ZM90.1606 53.778H87.6636C87.715 54.394 87.8653 54.8083 88.1146 55.021C88.364 55.2337 88.7746 55.34 89.3466 55.34C89.9626 55.34 90.586 55.296 91.2166 55.208L91.3046 55.835C90.8353 56.033 90.1423 56.132 89.2256 56.132C88.3016 56.132 87.6453 55.9193 87.2566 55.494C86.868 55.0613 86.6736 54.3317 86.6736 53.305C86.6736 52.271 86.8643 51.5487 87.2456 51.138C87.627 50.72 88.254 50.511 89.1266 50.511C89.926 50.511 90.509 50.6577 90.8756 50.951C91.2423 51.237 91.4293 51.6733 91.4366 52.26C91.4366 53.272 91.0113 53.778 90.1606 53.778ZM87.6526 53.052H89.9186C90.3146 53.052 90.5053 52.788 90.4906 52.26C90.4906 51.9153 90.3916 51.6697 90.1936 51.523C89.9956 51.3763 89.6546 51.303 89.1706 51.303C88.606 51.303 88.2136 51.4277 87.9936 51.677C87.7736 51.9263 87.66 52.3847 87.6526 53.052ZM96.893 55.23L96.981 55.857C96.4604 56.0403 95.8517 56.132 95.155 56.132C94.2237 56.132 93.5674 55.923 93.186 55.505C92.8047 55.0797 92.614 54.35 92.614 53.316C92.614 52.2893 92.8047 51.567 93.186 51.149C93.5747 50.7237 94.231 50.511 95.155 50.511C95.859 50.511 96.4347 50.5953 96.882 50.764L96.761 51.369C96.277 51.325 95.793 51.303 95.309 51.303C94.671 51.303 94.2237 51.446 93.967 51.732C93.7177 52.018 93.593 52.546 93.593 53.316C93.593 54.0933 93.7177 54.625 93.967 54.911C94.2164 55.197 94.6637 55.34 95.309 55.34C95.903 55.34 96.431 55.3033 96.893 55.23ZM102.221 55.23L102.309 55.857C101.789 56.0403 101.18 56.132 100.483 56.132C99.5518 56.132 98.8955 55.923 98.5142 55.505C98.1328 55.0797 97.9422 54.35 97.9422 53.316C97.9422 52.2893 98.1328 51.567 98.5142 51.149C98.9028 50.7237 99.5592 50.511 100.483 50.511C101.187 50.511 101.763 50.5953 102.21 50.764L102.089 51.369C101.605 51.325 101.121 51.303 100.637 51.303C99.9992 51.303 99.5518 51.446 99.2952 51.732C99.0458 52.018 98.9212 52.546 98.9212 53.316C98.9212 54.0933 99.0458 54.625 99.2952 54.911C99.5445 55.197 99.9918 55.34 100.637 55.34C101.231 55.34 101.759 55.3033 102.221 55.23ZM108.361 50.643L106.227 56.297C105.941 57.045 105.604 57.5657 105.215 57.859C104.746 58.211 104.082 58.3283 103.224 58.211L103.312 57.562C103.892 57.5913 104.321 57.5107 104.599 57.32C104.9 57.1073 105.149 56.7443 105.347 56.231L105.446 56H105.237C105.069 56 104.955 55.9193 104.896 55.758L102.96 50.643H103.961L105.38 54.636C105.461 54.878 105.527 55.0943 105.578 55.285H105.732C105.784 55.1383 105.857 54.922 105.952 54.636L107.36 50.643H108.361ZM109.443 51.446L109.355 50.753C110.352 50.5917 111.218 50.511 111.951 50.511C112.574 50.511 113.033 50.643 113.326 50.907C113.627 51.1637 113.777 51.6037 113.777 52.227V56H113.04L112.93 55.12C112.673 55.384 112.351 55.615 111.962 55.813C111.581 56.0037 111.166 56.099 110.719 56.099C110.228 56.099 109.839 55.9707 109.553 55.714C109.267 55.45 109.124 55.0797 109.124 54.603V54.02C109.124 53.602 109.252 53.2793 109.509 53.052C109.773 52.8173 110.14 52.7 110.609 52.7H112.842V52.227C112.835 51.8897 112.754 51.6513 112.6 51.512C112.446 51.3727 112.164 51.303 111.753 51.303C111.232 51.303 110.462 51.3507 109.443 51.446ZM110.07 54.152V54.493C110.07 54.7717 110.136 54.977 110.268 55.109C110.407 55.2337 110.62 55.296 110.906 55.296C111.192 55.3033 111.511 55.2373 111.863 55.098C112.215 54.9587 112.541 54.757 112.842 54.493V53.415H110.774C110.305 53.437 110.07 53.6827 110.07 54.152ZM116.249 50.643L116.326 51.501C116.62 51.193 116.964 50.951 117.36 50.775C117.764 50.599 118.16 50.511 118.548 50.511C119.194 50.511 119.663 50.7457 119.956 51.215C120.25 51.6843 120.396 52.3957 120.396 53.349C120.396 54.361 120.235 55.0797 119.912 55.505C119.59 55.923 119.076 56.132 118.372 56.132C117.654 56.132 116.994 55.9487 116.392 55.582C116.422 55.89 116.429 56.2493 116.414 56.66V58.211H115.49V50.643H116.249ZM116.414 52.15V54.988C117.162 55.208 117.734 55.318 118.13 55.318C118.614 55.318 118.952 55.1823 119.142 54.911C119.333 54.6397 119.428 54.119 119.428 53.349C119.428 52.601 119.337 52.0767 119.153 51.776C118.977 51.4753 118.677 51.325 118.251 51.325C117.76 51.325 117.148 51.6 116.414 52.15ZM122.805 52.722H124.07C124.862 52.722 125.409 52.843 125.709 53.085C126.01 53.327 126.16 53.7633 126.16 54.394C126.16 55.032 126.014 55.472 125.72 55.714C125.427 55.9487 124.925 56.066 124.213 56.066C123.253 56.066 122.49 56.044 121.925 56H121.892V50.643H122.805V52.722ZM128.085 50.643V56H127.139V50.643H128.085ZM122.805 55.318L124.07 55.329C124.503 55.329 124.8 55.2667 124.961 55.142C125.13 55.01 125.214 54.7497 125.214 54.361C125.214 54.0017 125.134 53.756 124.972 53.624C124.811 53.4847 124.51 53.415 124.07 53.415H122.805V55.318Z" fill="white"/>
</svg>
