<svg width="26" height="26" viewBox="0 0 26 26" fill="none" xmlns="http://www.w3.org/2000/svg">
<path d="M18.6659 0.358398C16.1077 0.358398 13.884 2.02705 12.7832 4.46299C11.6824 2.02711 9.45867 0.358398 6.90049 0.358398C3.25171 0.358398 0.283203 3.75356 0.283203 7.92676C0.283203 9.96094 0.979139 11.87 2.2404 13.2997L12.7832 25.3584L23.3237 13.3023C24.5873 11.87 25.2832 9.96094 25.2832 7.92676C25.2832 3.75356 22.3147 0.358398 18.6659 0.358398V0.358398ZM22.2872 12.1116L12.7832 22.982L3.27693 12.1089C2.29378 10.9945 1.75235 9.50927 1.75235 7.92676C1.75235 4.68008 4.0618 2.0387 6.90049 2.0387C9.73918 2.0387 12.0486 4.68008 12.0486 7.92676H13.5178C13.5178 4.68008 15.8272 2.0387 18.6659 2.0387C21.5046 2.0387 23.8141 4.68008 23.8141 7.92676C23.8141 9.50933 23.2726 10.9945 22.2872 12.1116Z" fill="white"/>
</svg>
