<svg width="21" height="26" viewBox="0 0 21 26" fill="none" xmlns="http://www.w3.org/2000/svg">
<path d="M20.4141 21.8783L18.9613 7.24707C18.9203 6.84395 18.5516 6.53613 18.1094 6.53613H15.5487V4.97363C15.5487 3.71738 15.0177 2.5377 14.0532 1.65488C13.0886 0.77207 11.7997 0.286133 10.4271 0.286133C7.60342 0.286133 5.30554 2.38926 5.30554 4.97363V6.53613H2.74477C2.3026 6.53613 1.93385 6.84395 1.89459 7.24707L0.441772 21.8783C0.354705 22.7502 0.675657 23.6221 1.32097 24.2689C1.96629 24.9158 2.88475 25.2861 3.84248 25.2861H17.0134C17.9712 25.2861 18.8896 24.9158 19.5349 24.2689C20.1802 23.6221 20.4995 22.7502 20.4141 21.8783ZM7.01273 4.97363C7.01273 3.2502 8.54407 1.84863 10.4271 1.84863C11.3439 1.84863 12.2026 2.17207 12.8462 2.75957C13.4898 3.34707 13.8415 4.13457 13.8415 4.97363V6.53613H7.01273V4.97363ZM18.2733 23.2158C17.9455 23.5424 17.4983 23.7236 17.0117 23.7236H3.84248C3.35764 23.7236 2.90865 23.5424 2.58258 23.2143C2.2548 22.8861 2.09945 22.4627 2.14384 22.0189L3.52495 8.09863H5.30554V10.4424C5.30554 10.8736 5.68795 11.2236 6.15914 11.2236C6.63032 11.2236 7.01273 10.8736 7.01273 10.4424V8.09863H13.8415V10.4424C13.8415 10.8736 14.2239 11.2236 14.6951 11.2236C15.1662 11.2236 15.5487 10.8736 15.5487 10.4424V8.09863H17.3293L18.7121 22.0205C18.7565 22.4627 18.6011 22.8877 18.2733 23.2158Z" fill="white"/>
</svg>
