<svg width="21" height="21" viewBox="0 0 21 21" fill="none" xmlns="http://www.w3.org/2000/svg">
<path d="M14.9894 0.358398C12.9428 0.358398 11.1639 1.69332 10.2832 3.64207C9.40254 1.69337 7.62358 0.358398 5.57703 0.358398C2.65801 0.358398 0.283203 3.07453 0.283203 6.41309C0.283203 8.04043 0.839951 9.56771 1.84896 10.7114L10.2832 20.3584L18.7156 10.7135C19.7265 9.56771 20.2832 8.04043 20.2832 6.41309C20.2832 3.07453 17.9084 0.358398 14.9894 0.358398V0.358398ZM17.8864 9.76093L10.2832 18.4573L2.67819 9.75878C1.89167 8.86727 1.45852 7.6791 1.45852 6.41309C1.45852 3.81575 3.30608 1.70264 5.57703 1.70264C7.84798 1.70264 9.69554 3.81575 9.69554 6.41309H10.8709C10.8709 3.81575 12.7184 1.70264 14.9894 1.70264C17.2603 1.70264 19.1079 3.81575 19.1079 6.41309C19.1079 7.67914 18.6747 8.86732 17.8864 9.76093Z" fill="white"/>
</svg>
