<svg width="19" height="19" viewBox="0 0 19 19" fill="none" xmlns="http://www.w3.org/2000/svg">
<path d="M2.14176 2.13723C4.97795 -0.706815 9.58269 -0.71323 12.4267 2.12296C15.171 4.85957 15.2871 9.26733 12.6908 12.1447L13.2462 12.7C13.6949 12.2513 14.4225 12.2512 14.8712 12.6999C14.8713 12.6999 14.8713 12.7 14.8714 12.7L18.6634 16.492C19.1121 16.9408 19.1122 17.6683 18.6635 18.1171C18.6635 18.1171 18.6634 18.1172 18.6634 18.1172L18.1218 18.6588C17.673 19.1074 16.9457 19.1074 16.497 18.6588L12.705 14.8668C12.2562 14.4181 12.2561 13.6906 12.7048 13.2418C12.7049 13.2417 12.7049 13.2417 12.705 13.2416L12.1496 12.6863C9.16959 15.3793 4.57075 15.1466 1.87771 12.1667C-0.723541 9.2883 -0.607338 4.87479 2.14176 2.13723ZM13.2462 14.3249L17.0382 18.1169C17.1877 18.2664 17.4302 18.2664 17.5798 18.1169L18.1214 17.5749C18.2707 17.4253 18.2707 17.1832 18.1214 17.0336L14.3294 13.2416C14.1779 13.0968 13.9393 13.0968 13.7878 13.2416L13.2462 13.7836C13.0969 13.9332 13.0969 14.1753 13.2462 14.3249ZM2.68298 11.8876C5.22592 14.4305 9.3488 14.4304 11.8916 11.8875C14.4345 9.34456 14.4344 5.22167 11.8915 2.67883C9.34861 0.136042 5.22587 0.136042 2.68298 2.67883C0.144213 5.22349 0.144213 9.34298 2.68298 11.8876Z" fill="black"/>
<path d="M3.24348 3.22852L3.78516 3.77012C1.84366 5.7161 1.84366 8.86614 3.78516 10.8121L3.24348 11.3537C1.00265 9.10869 1.00265 5.47355 3.24348 3.22852Z" fill="black"/>
</svg>
