<svg width="54" height="55" viewBox="0 0 54 55" fill="none" xmlns="http://www.w3.org/2000/svg">
<path d="M53.6232 19.7502L47.5903 3.75784C46.4471 0.734638 43.1165 -0.771234 40.1512 0.394321C40.1082 0.41128 40.0653 0.428697 40.0225 0.446686L9.87392 13.1885C7.0032 14.3891 5.59229 17.7021 6.692 20.6603L7.52097 22.9163H5.61938C2.51737 22.9198 0.00348401 25.4829 0 28.6455V49.2708C0.00348401 52.4334 2.51737 54.9964 5.61938 55H43.8311C46.9331 54.9964 49.447 52.4334 49.4505 49.2708V28.6455C49.4487 28.3345 49.4216 28.0242 49.3696 27.7178L50.4134 27.287C53.3098 26.0766 54.7333 22.7342 53.6232 19.7502ZM5.61938 24.7498H43.8311C45.8492 24.7556 47.5138 26.3624 47.6298 28.4165H1.82068C1.93666 26.3623 3.60135 24.7555 5.61938 24.7498ZM14.6562 19.2277L20.6658 16.1632L21.9012 19.3139L15.8916 22.3774L14.6562 19.2277ZM47.6523 49.2709C47.6498 51.4215 45.9405 53.1642 43.8311 53.1668H5.61938C3.50997 53.1642 1.80067 51.4215 1.7982 49.2709V37.5832H47.6523V49.2709ZM47.6523 35.7499H1.7982V30.2498H47.6523V35.7499ZM49.7391 25.5931L48.7996 25.9809C47.8291 24.0989 45.9166 22.9194 43.8311 22.9164H18.8559L23.4458 20.5761C23.8644 20.3631 24.0528 19.8585 23.8792 19.4156L21.9722 14.5572C21.7878 14.0872 21.2646 13.8585 20.8036 14.0464C20.7803 14.0559 20.7575 14.0663 20.7352 14.0778L13.1117 17.9663C12.6935 18.1797 12.5055 18.6842 12.6792 19.1269L14.1663 22.9164H9.44055L8.37602 20.0215C7.62134 17.989 8.59068 15.7134 10.5626 14.8881L40.7104 2.14632C42.7258 1.29427 45.0372 2.26927 45.873 4.32412C45.886 4.35609 45.8986 4.38829 45.9108 4.4206L51.9437 20.413C52.7069 22.4634 51.7293 24.7606 49.7391 25.5931Z" fill="#2C2419"/>
<path d="M32.3438 49.5889C34.0193 50.5813 36.0882 50.5813 37.7637 49.5889C40.3398 51.1148 43.6415 50.2225 45.1382 47.596C46.6349 44.9695 45.7597 41.6032 43.1836 40.0773C42.3567 39.5876 41.4172 39.3307 40.461 39.3329C39.5131 39.3334 38.5823 39.5902 37.7637 40.0773C35.1875 38.5514 31.8858 39.4435 30.3891 42.07C28.8925 44.6967 29.7676 48.0628 32.3438 49.5889ZM39.267 41.3901C39.6494 41.2464 40.0533 41.1708 40.461 41.1664C42.4472 41.1664 44.0574 42.8081 44.0574 44.8331C44.0574 46.8582 42.4472 48.4998 40.461 48.4998C40.0533 48.4955 39.6494 48.4199 39.267 48.2762C40.8588 46.2676 40.8588 43.3985 39.267 41.3901ZM37.7637 42.4333C38.9625 43.7998 38.9625 45.8665 37.7637 47.233C36.5648 45.8665 36.5648 43.7997 37.7637 42.4333ZM35.0664 41.1664C35.474 41.1707 35.8779 41.2464 36.2604 41.3901C34.6685 43.3985 34.6685 46.2677 36.2604 48.2762C35.8779 48.4199 35.474 48.4955 35.0664 48.4998C33.0801 48.4998 31.47 46.8582 31.47 44.8331C31.47 42.808 33.0801 41.1664 35.0664 41.1664Z" fill="#2C2419"/>
<path d="M37.9258 17.9184L38.6562 19.5938L47.2337 15.7064L46.5033 14.031L37.9258 17.9184Z" fill="#FFA401"/>
<path d="M44.5886 10.1492L32.1992 15.9795L32.9525 17.6433L45.3419 11.813L44.5886 10.1492Z" fill="#FFA401"/>
</svg>
