<svg width="54" height="57" viewBox="0 0 54 57" fill="none" xmlns="http://www.w3.org/2000/svg">
<path d="M29.0769 20.4268H16.6154C15.7891 20.4268 14.9967 20.7496 14.4125 21.3242C13.8282 21.8988 13.5 22.6781 13.5 23.4907C13.5 24.3034 13.8282 25.0827 14.4125 25.6573C14.9967 26.2319 15.7891 26.5547 16.6154 26.5547H29.0769C29.9032 26.5547 30.6956 26.2319 31.2798 25.6573C31.8641 25.0827 32.1923 24.3034 32.1923 23.4907C32.1923 22.6781 31.8641 21.8988 31.2798 21.3242C30.6956 20.7496 29.9032 20.4268 29.0769 20.4268ZM29.0769 24.5121H16.6154C16.34 24.5121 16.0758 24.4045 15.8811 24.2129C15.6863 24.0214 15.5769 23.7616 15.5769 23.4907C15.5769 23.2199 15.6863 22.9601 15.8811 22.7686C16.0758 22.577 16.34 22.4694 16.6154 22.4694H29.0769C29.3523 22.4694 29.6165 22.577 29.8112 22.7686C30.006 22.9601 30.1154 23.2199 30.1154 23.4907C30.1154 23.7616 30.006 24.0214 29.8112 24.2129C29.6165 24.4045 29.3523 24.5121 29.0769 24.5121Z" fill="#2C2419"/>
<path d="M19.7312 28.5977H5.19276C4.91734 28.5977 4.6532 28.7053 4.45846 28.8968C4.26371 29.0883 4.1543 29.3481 4.1543 29.619V41.8749C4.1543 42.1458 4.26371 42.4056 4.45846 42.5971C4.6532 42.7887 4.91734 42.8963 5.19276 42.8963H19.7312C20.0066 42.8963 20.2708 42.7887 20.4655 42.5971C20.6603 42.4056 20.7697 42.1458 20.7697 41.8749V29.619C20.7697 29.3481 20.6603 29.0883 20.4655 28.8968C20.2708 28.7053 20.0066 28.5977 19.7312 28.5977ZM18.6928 40.8536H6.23122V30.6403H18.6928V40.8536Z" fill="#FFA401"/>
<path d="M8.30799 34.7253H11.4234C11.6988 34.7253 11.9629 34.6177 12.1577 34.4261C12.3524 34.2346 12.4618 33.9748 12.4618 33.7039C12.4618 33.4331 12.3524 33.1733 12.1577 32.9818C11.9629 32.7902 11.6988 32.6826 11.4234 32.6826H8.30799C8.03258 32.6826 7.76844 32.7902 7.57369 32.9818C7.37894 33.1733 7.26953 33.4331 7.26953 33.7039C7.26953 33.9748 7.37894 34.2346 7.57369 34.4261C7.76844 34.6177 8.03258 34.7253 8.30799 34.7253Z" fill="#FFA401"/>
<path d="M8.30799 38.8102H14.5388C14.8142 38.8102 15.0783 38.7026 15.2731 38.5111C15.4678 38.3196 15.5772 38.0598 15.5772 37.7889C15.5772 37.518 15.4678 37.2583 15.2731 37.0667C15.0783 36.8752 14.8142 36.7676 14.5388 36.7676H8.30799C8.03258 36.7676 7.76844 36.8752 7.57369 37.0667C7.37894 37.2583 7.26953 37.518 7.26953 37.7889C7.26953 38.0598 7.37894 38.3196 7.57369 38.5111C7.76844 38.7026 8.03258 38.8102 8.30799 38.8102Z" fill="#FFA401"/>
<path d="M40.2203 42.0456C40.1068 42.12 40.0093 42.2157 39.9334 42.3271C39.8576 42.4386 39.8047 42.5636 39.778 42.6951C39.7512 42.8267 39.7511 42.9621 39.7776 43.0936C39.804 43.2252 39.8566 43.3504 39.9322 43.462L42.0091 46.526C42.0944 46.6517 42.2069 46.7573 42.3387 46.835C42.4704 46.9128 42.6181 46.9609 42.771 46.9757C42.8052 46.979 42.8393 46.9807 42.8733 46.9807C43.1486 46.9807 43.4127 46.8731 43.6075 46.6816L49.8382 40.5536C50.031 40.3617 50.1388 40.1025 50.138 39.8327C50.1372 39.5629 50.0278 39.3044 49.8339 39.1136C49.6399 38.9228 49.377 38.8153 49.1027 38.8145C48.8284 38.8136 48.5649 38.9196 48.3697 39.1092L43.0346 44.3563L41.6603 42.3288C41.5076 42.1034 41.27 41.947 40.9999 41.8939C40.7299 41.8408 40.4494 41.8954 40.2203 42.0456Z" fill="#2C2419"/>
<path d="M45.6923 1.02133C45.6923 0.750455 45.5829 0.490677 45.3882 0.29914C45.1934 0.107604 44.9293 0 44.6538 0H1.03846C0.763044 0 0.498908 0.107604 0.304159 0.29914C0.109409 0.490677 0 0.750455 0 1.02133V45.9598C0 46.2307 0.109409 46.4904 0.304159 46.682C0.498908 46.8735 0.763044 46.9811 1.03846 46.9811H35.7607C37.0836 50.8083 39.7813 54.0289 43.3475 56.0385C43.4959 56.1219 43.663 56.168 43.8338 56.1726C44.0047 56.1773 44.1741 56.1404 44.327 56.0652L44.6914 55.8865C47.4885 54.5109 49.841 52.3964 51.4851 49.78C53.1292 47.1636 54 44.1486 54 41.0729V36.1356C54 35.8648 53.8906 35.605 53.6958 35.4134C53.5011 35.2219 53.237 35.1143 52.9615 35.1143C52.0307 35.1133 51.1383 34.7491 50.48 34.1017C49.8218 33.4544 49.4516 32.5767 49.4505 31.6612C49.4505 31.3903 49.3411 31.1305 49.1463 30.939C48.9516 30.7475 48.6875 30.6399 48.412 30.6399H45.6923V1.02133ZM29.0769 2.04266H43.6154V6.12797H29.0769V2.04266ZM18.6923 2.04266H27V6.12797H18.6923V2.04266ZM18.6923 8.17063H27V15.8541L23.2318 14.3716C22.9842 14.2742 22.7081 14.2742 22.4605 14.3716L18.6923 15.8541V8.17063ZM2.07692 2.04266H16.6154V6.12797H2.07692V2.04266ZM34.8626 36.1356V41.659C34.8626 42.7604 34.9749 43.8591 35.1979 44.9385H2.07692V8.17063H16.6154V17.3626C16.6154 17.5295 16.657 17.6939 16.7365 17.8413C16.816 17.9887 16.9311 18.1147 17.0716 18.2083C17.2122 18.3019 17.3739 18.3602 17.5426 18.3781C17.7113 18.3959 17.8819 18.3729 18.0395 18.3109L22.8462 16.4199L27.6528 18.3109C27.8104 18.3729 27.981 18.3959 28.1497 18.3781C28.3184 18.3602 28.4801 18.3019 28.6207 18.2083C28.7612 18.1147 28.8763 17.9887 28.9558 17.8413C29.0353 17.6939 29.0769 17.5295 29.0769 17.3626V8.17063H43.6154V30.6399H40.4505C40.1751 30.6399 39.911 30.7475 39.7162 30.939C39.5215 31.1305 39.4121 31.3903 39.4121 31.6612C39.411 32.5767 39.0408 33.4544 38.3825 34.1017C37.7243 34.7491 36.8319 35.1133 35.901 35.1143C35.6256 35.1143 35.3615 35.2219 35.1667 35.4134C34.972 35.605 34.8626 35.8648 34.8626 36.1356ZM47.4707 32.6825C47.6814 33.7671 48.2185 34.7644 49.0124 35.5452C49.8062 36.326 50.8203 36.8542 51.9231 37.0615V41.0725C51.9231 43.7421 51.1747 46.36 49.7603 48.6384C48.3458 50.9169 46.32 52.7677 43.9055 53.9874C41.777 52.6816 40.021 50.865 38.8025 48.7084C37.584 46.5518 36.9429 44.1258 36.9395 41.6586V37.0615C38.0423 36.8543 39.0564 36.326 39.8502 35.5452C40.6441 34.7644 41.1812 33.7671 41.3919 32.6825H47.4707Z" fill="#2C2419"/>
</svg>
