<svg width="54" height="58" viewBox="0 0 54 58" fill="none" xmlns="http://www.w3.org/2000/svg">
<path d="M12.7629 19.6602H6.87219C6.32992 19.6602 5.89062 20.1 5.89062 20.643V26.5411C5.89062 27.084 6.32992 27.5239 6.87219 27.5239H12.7629C13.3052 27.5239 13.7445 27.084 13.7445 26.5411V20.643C13.7445 20.1 13.3052 19.6602 12.7629 19.6602ZM11.7809 25.5578H7.85421V21.6262H11.7809V25.5578Z" fill="#2C2419"/>
<path d="M22.5793 19.6602H16.6886C16.1468 19.6602 15.707 20.1 15.707 20.643V26.5411C15.707 27.084 16.1468 27.5239 16.6886 27.5239H22.5793C23.1216 27.5239 23.5614 27.084 23.5614 26.5411V20.643C23.5614 20.1 23.1216 19.6602 22.5793 19.6602ZM21.5978 25.5578H17.6706V21.6262H21.5978V25.5578Z" fill="#2C2419"/>
<path d="M32.3981 19.6602H26.5074C25.9651 19.6602 25.5254 20.1 25.5254 20.643V26.5411C25.5254 27.084 25.9651 27.5239 26.5074 27.5239H32.3977C32.94 27.5239 33.3797 27.084 33.3797 26.5411V20.643C33.3797 20.1 32.94 19.6602 32.3981 19.6602ZM31.4161 25.5578H27.489V21.6262H31.4161V25.5578Z" fill="#2C2419"/>
<path d="M36.3253 27.5239H42.2161C42.7583 27.5239 43.1976 27.084 43.1976 26.5411V20.643C43.1976 20.1 42.7583 19.6602 42.2161 19.6602H36.3253C35.783 19.6602 35.3438 20.1 35.3438 20.643V26.5411C35.3438 27.084 35.783 27.5239 36.3253 27.5239ZM37.3073 21.6262H41.234V25.5578H37.3073V21.6262Z" fill="#2C2419"/>
<path d="M12.7629 29.4902H6.87219C6.32992 29.4902 5.89062 29.9305 5.89062 30.4735V36.3712C5.89062 36.9141 6.32992 37.3544 6.87219 37.3544H12.7629C13.3052 37.3544 13.7445 36.9141 13.7445 36.3712V30.4735C13.7445 29.9305 13.3052 29.4902 12.7629 29.4902ZM11.7809 35.3884H7.85421V31.4563H11.7809V35.3884Z" fill="#2C2419"/>
<path d="M22.5793 29.4902H16.6886C16.1468 29.4902 15.707 29.9305 15.707 30.4735V36.3712C15.707 36.9141 16.1468 37.3544 16.6886 37.3544H22.5793C23.1216 37.3544 23.5614 36.9141 23.5614 36.3712V30.4735C23.5614 29.9305 23.1216 29.4902 22.5793 29.4902ZM21.5978 35.3884H17.6706V31.4563H21.5978V35.3884Z" fill="#2C2419"/>
<path d="M32.3981 29.4902H26.5074C25.9651 29.4902 25.5254 29.9305 25.5254 30.4735V36.3712C25.5254 36.9141 25.9651 37.3544 26.5074 37.3544H32.3977C32.94 37.3544 33.3797 36.9141 33.3797 36.3712V30.4735C33.3797 29.9305 32.94 29.4902 32.3981 29.4902ZM31.4161 35.3884H27.489V31.4563H31.4161V35.3884Z" fill="#2C2419"/>
<path d="M36.3253 37.3544H42.2161C42.7583 37.3544 43.1976 36.9141 43.1976 36.3712V30.4735C43.1976 29.9305 42.7583 29.4902 42.2161 29.4902H36.3253C35.783 29.4902 35.3438 29.9305 35.3438 30.4735V36.3712C35.3438 36.9141 35.783 37.3544 36.3253 37.3544ZM37.3073 31.4563H41.234V35.3884H37.3073V31.4563Z" fill="#2C2419"/>
<path d="M12.7629 39.3203H6.87219C6.32992 39.3203 5.89062 39.7602 5.89062 40.3031V46.2012C5.89062 46.7442 6.32992 47.1841 6.87219 47.1841H12.7629C13.3052 47.1841 13.7445 46.7442 13.7445 46.2012V40.3031C13.7445 39.7602 13.3052 39.3203 12.7629 39.3203ZM11.7809 45.218H7.85421V41.2859H11.7809V45.218Z" fill="#2C2419"/>
<path d="M22.5793 39.3203H16.6886C16.1468 39.3203 15.707 39.7602 15.707 40.3031V46.2012C15.707 46.7442 16.1468 47.1841 16.6886 47.1841H22.5793C23.1216 47.1841 23.5614 46.7442 23.5614 46.2012V40.3031C23.5614 39.7602 23.1216 39.3203 22.5793 39.3203ZM21.5978 45.218H17.6706V41.2859H21.5978V45.218Z" fill="#2C2419"/>
<path d="M32.3981 39.3203H26.5074C25.9651 39.3203 25.5254 39.7602 25.5254 40.3031V46.2012C25.5254 46.7442 25.9651 47.1841 26.5074 47.1841H32.3977C32.94 47.1841 33.3797 46.7442 33.3797 46.2012V40.3031C33.3797 39.7602 32.94 39.3203 32.3981 39.3203ZM31.4161 45.218H27.489V41.2859H31.4161V45.218Z" fill="#2C2419"/>
<path d="M49.0882 39.6669V4.91489C49.0882 4.37194 48.6484 3.93209 48.1062 3.93209H43.1974V2.94885C43.1974 1.32043 41.8791 0 40.2523 0C38.6255 0 37.3071 1.32043 37.3071 2.94885V3.93209H35.3436V2.94885C35.3436 1.32043 34.0248 0 32.3984 0C30.7716 0 29.4528 1.32043 29.4528 2.94885V3.93209H27.4892V2.94885C27.4892 1.32043 26.1709 0 24.5441 0C22.9173 0 21.5989 1.32043 21.5989 2.94885V3.93209H19.6354V2.94885C19.6354 1.32043 18.3166 0 16.6898 0C15.0634 0 13.7446 1.32043 13.7446 2.94885V3.93209H11.781V2.94885C11.781 1.32043 10.4627 0 8.83589 0C7.20907 0 5.89074 1.32043 5.89074 2.94885V3.93209H0.981569C0.439739 3.93209 0 4.37194 0 4.91489V52.0986C0 52.6416 0.439739 53.0819 0.981569 53.0819H35.69C38.3961 57.7813 44.3947 59.3946 49.0882 56.6856C53.7817 53.9762 55.393 47.9701 52.6874 43.2707C51.8252 41.7733 50.5837 40.5303 49.0882 39.6669ZM39.2707 2.94885C39.2707 2.40589 39.71 1.96605 40.2523 1.96605C40.7946 1.96605 41.2339 2.40589 41.2339 2.94885V6.88094C41.2339 7.42389 40.7946 7.86418 40.2523 7.86418C39.71 7.86418 39.2707 7.42389 39.2707 6.88094V2.94885ZM31.4164 2.94885C31.4164 2.40589 31.8561 1.96605 32.3984 1.96605C32.9402 1.96605 33.38 2.40589 33.38 2.94885V6.88094C33.38 7.42389 32.9402 7.86418 32.3984 7.86418C31.8561 7.86418 31.4164 7.42389 31.4164 6.88094V2.94885ZM23.5625 2.94885C23.5625 2.40589 24.0018 1.96605 24.5441 1.96605C25.0864 1.96605 25.5257 2.40589 25.5257 2.94885V6.88094C25.5257 7.42389 25.0864 7.86418 24.5441 7.86418C24.0018 7.86418 23.5625 7.42389 23.5625 6.88094V2.94885ZM15.7082 2.94885C15.7082 2.40589 16.1479 1.96605 16.6898 1.96605C17.232 1.96605 17.6718 2.40589 17.6718 2.94885V6.88094C17.6718 7.42389 17.232 7.86418 16.6898 7.86418C16.1479 7.86418 15.7082 7.42389 15.7082 6.88094V2.94885ZM7.85432 2.94885C7.85432 2.40589 8.29362 1.96605 8.83589 1.96605C9.37816 1.96605 9.81746 2.40589 9.81746 2.94885V6.88094C9.81746 7.42389 9.37816 7.86418 8.83589 7.86418C8.29362 7.86418 7.85432 7.42389 7.85432 6.88094V2.94885ZM1.96358 5.89814H5.89074V6.88094C5.89074 8.50979 7.20907 9.82978 8.83589 9.82978C10.4627 9.82978 11.781 8.50979 11.781 6.88094V5.89814H13.7446V6.88094C13.7446 8.50979 15.0634 9.82978 16.6898 9.82978C18.3166 9.82978 19.6354 8.50979 19.6354 6.88094V5.89814H21.5989V6.88094C21.5989 8.50979 22.9173 9.82978 24.5441 9.82978C26.1709 9.82978 27.4892 8.50979 27.4892 6.88094V5.89814H29.4528V6.88094C29.4528 8.50979 30.7716 9.82978 32.3984 9.82978C34.0248 9.82978 35.3436 8.50979 35.3436 6.88094V5.89814H37.3071V6.88094C37.3071 8.50979 38.6259 9.82978 40.2523 9.82978C41.8791 9.82978 43.1979 8.50979 43.1979 6.88094V5.89814H47.1246V13.7619H1.96358V5.89814ZM1.96358 51.1158V15.7279H47.1246V38.7899C41.952 37.1615 36.4405 40.04 34.8141 45.219C34.2117 47.1382 34.2117 49.1967 34.8141 51.1158H1.96358ZM44.1794 56.0307C39.8417 56.0307 36.3251 52.5102 36.3251 48.167C36.3251 43.8238 39.8417 40.3028 44.1794 40.3028C48.5172 40.3028 52.0333 43.8238 52.0333 48.167C52.0285 52.508 48.515 56.0259 44.1794 56.0307Z" fill="#2C2419"/>
<path d="M47.4929 44.4509L43.2713 47.8342L40.9476 45.5067C40.564 45.123 39.9421 45.123 39.559 45.5071C39.1754 45.8912 39.1758 46.5138 39.5594 46.8974L42.5046 49.8467C42.8581 50.2012 43.4216 50.2321 43.8123 49.9193L48.721 45.9872C49.1449 45.6483 49.2138 45.0292 48.8748 44.6048C48.5359 44.1805 47.9176 44.1115 47.4937 44.4509H47.4929Z" fill="#FFA401"/>
</svg>
