<svg width="68" height="51" viewBox="0 0 68 51" fill="none" xmlns="http://www.w3.org/2000/svg">
<path d="M65.2415 33.6742L59.3845 24.8793C59.1735 24.5621 58.8228 24.3722 58.4476 24.3722H49.8668V15.1015C49.8668 14.4614 49.3594 13.9425 48.7335 13.9425H35.1527C35.1463 13.9425 35.1401 13.9414 35.1336 13.9414H29.4259C28.8176 5.64341 21.7465 -0.579241 13.6325 0.042865C5.51828 0.664971 -0.566397 7.89626 0.0419145 16.1944C0.58591 23.6151 6.3456 29.5181 13.6004 30.0907V32.4867H7.93382C7.30794 32.4867 6.80049 33.0056 6.80049 33.6457C6.80049 34.2858 7.30794 34.8047 7.93382 34.8047H13.6004V37.1228H2.2672C1.64132 37.1228 1.13387 37.6417 1.13387 38.2818C1.13387 38.9219 1.64132 39.4408 2.2672 39.4408H13.6004V41.7589H7.93382C7.30794 41.7589 6.80049 42.2778 6.80049 42.9179C6.80049 43.558 7.30794 44.0769 7.93382 44.0769H13.6004V45.2369C13.6004 45.877 14.1079 46.396 14.7338 46.396H19.3886C20.0333 49.5279 23.0386 51.5323 26.101 50.873C28.2988 50.3998 30.0159 48.6438 30.4788 46.396L52.2475 46.3605C52.8722 49.4967 55.8646 51.521 58.9311 50.8823C61.1583 50.4182 62.8989 48.6383 63.3527 46.3605H66.8667C67.4926 46.3605 68 45.8415 68 45.2015V37.0883C67.9976 35.4219 66.8412 33.9908 65.2415 33.6742ZM29.467 16.2605H34.0003V23.2136H29.467V16.2605ZM2.2672 15.0667C2.2672 8.02549 7.84868 2.31745 14.7338 2.31745C21.6188 2.31745 27.2003 8.02549 27.2003 15.0667C27.2003 22.1079 21.6188 27.816 14.7338 27.816C7.85193 27.808 2.27499 22.1047 2.2672 15.0667ZM19.375 44.0771H15.8671V41.759H20.3784C19.88 42.4462 19.5372 43.2379 19.375 44.0771ZM24.9337 48.6784C23.0559 48.6764 21.5353 47.118 21.5371 45.1978C21.5388 43.4683 22.7832 42.003 24.4575 41.759H25.4098C27.2688 42.0299 28.561 43.7906 28.2963 45.6917C28.0575 47.404 26.6247 48.6766 24.9337 48.6784ZM47.6002 44.0771H30.4924C30.33 43.2378 29.9873 42.446 29.4889 41.759H47.6002V44.0771ZM47.6002 39.4062H15.8671V30.0905C20.5147 29.7198 24.7172 27.1233 27.2003 23.0883V24.3734C27.2003 25.0134 27.7078 25.5324 28.3337 25.5324H35.1336C35.7595 25.5324 36.2669 25.0134 36.2669 24.3734V16.2605H47.6002V39.4062ZM49.8668 26.6907H57.8484L62.46 33.6159L49.8668 33.6425V26.6907ZM57.8001 48.6784C55.9223 48.6784 54.4001 47.1217 54.4001 45.2013C54.4001 43.281 55.9223 41.7242 57.8001 41.7242C59.6779 41.7242 61.2001 43.281 61.2001 45.2013C61.1978 47.1208 59.6769 48.6762 57.8001 48.6784ZM65.7334 39.44H63.4667V41.758H65.7334V44.0423H63.3534C62.7286 40.9061 59.7362 38.8817 56.6697 39.5205C54.4426 39.9845 52.702 41.7645 52.2482 44.0423H49.8668V35.9614L64.514 35.9291H64.6C65.2256 35.9298 65.7326 36.4484 65.7334 37.0882V39.44Z" fill="#2C2419"/>
<path d="M14.7341 4.63672C14.1082 4.63672 13.6007 5.15567 13.6007 5.79574V14.415L8.48011 17.5878C7.94206 17.9149 7.76526 18.6261 8.08514 19.1764C8.40502 19.7266 9.10046 19.9074 9.6385 19.5803C9.64403 19.577 9.64941 19.5736 9.65494 19.5702L15.3216 16.0593C15.6606 15.8493 15.8675 15.4733 15.8675 15.0679V5.79574C15.8674 5.15567 15.3599 4.63672 14.7341 4.63672Z" fill="#FFA401"/>
<path d="M35.1344 27.8516H28.3345C27.7086 27.8516 27.2012 28.3705 27.2012 29.0106C27.2012 29.6507 27.7086 30.1696 28.3345 30.1696H35.1344C35.7603 30.1696 36.2677 29.6507 36.2677 29.0106C36.2677 28.3705 35.7603 27.8516 35.1344 27.8516Z" fill="#2C2419"/>
</svg>
