<svg width="25" height="25" viewBox="0 0 25 25" fill="none" xmlns="http://www.w3.org/2000/svg">
<path d="M18.0971 8.26643C17.9821 7.95477 17.7986 7.67267 17.5602 7.44112C17.3287 7.2027 17.0468 7.01921 16.7349 6.9042C16.482 6.80597 16.1021 6.68905 15.4022 6.6572C14.6452 6.62267 14.4182 6.61523 12.5017 6.61523C10.585 6.61523 10.3581 6.62248 9.60123 6.65701C8.90143 6.68905 8.52129 6.80597 8.26857 6.9042C7.95672 7.01921 7.67462 7.2027 7.44326 7.44112C7.20484 7.67267 7.02135 7.95457 6.90615 8.26643C6.80792 8.51934 6.691 8.89948 6.65915 9.59928C6.62463 10.3561 6.61719 10.5831 6.61719 12.4998C6.61719 14.4163 6.62463 14.6433 6.65915 15.4003C6.691 16.1001 6.80792 16.48 6.90615 16.733C7.02135 17.0448 7.20465 17.3267 7.44307 17.5583C7.67462 17.7967 7.95653 17.9802 8.26838 18.0952C8.52129 18.1936 8.90143 18.3105 9.60123 18.3424C10.3581 18.3769 10.5849 18.3841 12.5015 18.3841C14.4184 18.3841 14.6454 18.3769 15.4021 18.3424C16.1019 18.3105 16.482 18.1936 16.7349 18.0952C17.3609 17.8537 17.8557 17.3589 18.0971 16.733C18.1954 16.48 18.3123 16.1001 18.3443 15.4003C18.3789 14.6433 18.3861 14.4163 18.3861 12.4998C18.3861 10.5831 18.3789 10.3561 18.3443 9.59928C18.3125 8.89948 18.1956 8.51934 18.0971 8.26643ZM12.5017 16.1854C10.466 16.1854 8.81579 14.5353 8.81579 12.4996C8.81579 10.4639 10.466 8.81384 12.5017 8.81384C14.5373 8.81384 16.1875 10.4639 16.1875 12.4996C16.1875 14.5353 14.5373 16.1854 12.5017 16.1854ZM16.3332 9.52947C15.8575 9.52947 15.4719 9.14381 15.4719 8.66811C15.4719 8.19242 15.8575 7.80676 16.3332 7.80676C16.8089 7.80676 17.1946 8.19242 17.1946 8.66811C17.1944 9.14381 16.8089 9.52947 16.3332 9.52947Z" fill="#AFAFAF"/>
<path d="M14.8926 12.5C14.8926 13.8214 13.8214 14.8926 12.5 14.8926C11.1786 14.8926 10.1074 13.8214 10.1074 12.5C10.1074 11.1786 11.1786 10.1074 12.5 10.1074C13.8214 10.1074 14.8926 11.1786 14.8926 12.5Z" fill="#AFAFAF"/>
<path d="M23.197 0H1.80302C0.80719 0 0 0.80719 0 1.80302V23.197C0 24.1928 0.80719 25 1.80302 25H23.197C24.1928 25 25 24.1928 25 23.197V1.80302C25 0.80719 24.1928 0 23.197 0V0ZM19.6344 15.4593C19.5997 16.2233 19.4782 16.745 19.3008 17.2016C18.928 18.1658 18.1658 18.928 17.2016 19.3008C16.7452 19.4782 16.2233 19.5995 15.4594 19.6344C14.694 19.6693 14.4495 19.6777 12.5002 19.6777C10.5507 19.6777 10.3064 19.6693 9.54075 19.6344C8.77686 19.5995 8.255 19.4782 7.79858 19.3008C7.31945 19.1206 6.88572 18.8381 6.52714 18.4729C6.16207 18.1145 5.87959 17.6805 5.69935 17.2016C5.52197 16.7452 5.40047 16.2233 5.36575 15.4594C5.33047 14.6938 5.32227 14.4493 5.32227 12.5C5.32227 10.5507 5.33047 10.3062 5.36556 9.54075C5.40028 8.77666 5.52158 8.255 5.69897 7.79839C5.87921 7.31945 6.16188 6.88553 6.52714 6.52714C6.88553 6.16188 7.31945 5.8794 7.79839 5.69916C8.255 5.52177 8.77666 5.40047 9.54075 5.36556C10.3062 5.33066 10.5507 5.32227 12.5 5.32227C14.4493 5.32227 14.6938 5.33066 15.4593 5.36575C16.2233 5.40047 16.745 5.52177 17.2016 5.69897C17.6805 5.87921 18.1145 6.16188 18.4731 6.52714C18.8381 6.88572 19.1208 7.31945 19.3008 7.79839C19.4784 8.255 19.5997 8.77666 19.6346 9.54075C19.6695 10.3062 19.6777 10.5507 19.6777 12.5C19.6777 14.4493 19.6695 14.6938 19.6344 15.4593Z" fill="#AFAFAF"/>
</svg>
